{
	"patcher" : 	{
		"fileversion" : 1,
		"rect" : [ 25.0, 69.0, 277.0, 419.0 ],
		"bglocked" : 0,
		"defrect" : [ 25.0, 69.0, 277.0, 419.0 ],
		"openrect" : [ 0.0, 0.0, 0.0, 0.0 ],
		"openinpresentation" : 0,
		"default_fontsize" : 12.0,
		"default_fontface" : 0,
		"default_fontname" : "Arial",
		"gridonopen" : 0,
		"gridsize" : [ 15.0, 15.0 ],
		"gridsnaponopen" : 0,
		"toolbarvisible" : 1,
		"boxanimatetime" : 200,
		"imprint" : 0,
		"metadata" : [  ],
		"boxes" : [ 			{
				"box" : 				{
					"maxclass" : "outlet",
					"id" : "obj-2",
					"numoutlets" : 0,
					"patching_rect" : [ 78.0, 347.0, 25.0, 25.0 ],
					"numinlets" : 1,
					"comment" : ""
				}

			}
, 			{
				"box" : 				{
					"maxclass" : "newobj",
					"text" : "pass_inst #1",
					"id" : "obj-120",
					"numoutlets" : 1,
					"fontname" : "Arial",
					"outlettype" : [ "" ],
					"fontsize" : 12.0,
					"patching_rect" : [ 15.0, 44.0, 78.0, 20.0 ],
					"numinlets" : 1
				}

			}
, 			{
				"box" : 				{
					"maxclass" : "newobj",
					"text" : "expr pow(2.\\,$f1/12)",
					"id" : "obj-97",
					"numoutlets" : 1,
					"fontname" : "Arial",
					"outlettype" : [ "" ],
					"fontsize" : 12.0,
					"patching_rect" : [ 126.0, 49.0, 117.0, 20.0 ],
					"numinlets" : 1
				}

			}
, 			{
				"box" : 				{
					"maxclass" : "message",
					"text" : "$1 10",
					"id" : "obj-98",
					"numoutlets" : 1,
					"fontname" : "Arial",
					"outlettype" : [ "" ],
					"fontsize" : 12.0,
					"patching_rect" : [ 126.0, 82.0, 41.0, 18.0 ],
					"numinlets" : 2
				}

			}
, 			{
				"box" : 				{
					"maxclass" : "newobj",
					"text" : "r pattern_pitch",
					"id" : "obj-99",
					"numoutlets" : 1,
					"fontname" : "Arial",
					"outlettype" : [ "" ],
					"fontsize" : 12.0,
					"patching_rect" : [ 126.0, 15.0, 87.0, 20.0 ],
					"numinlets" : 0
				}

			}
, 			{
				"box" : 				{
					"maxclass" : "newobj",
					"text" : "pass_inst #1",
					"id" : "obj-96",
					"numoutlets" : 1,
					"fontname" : "Arial",
					"outlettype" : [ "" ],
					"fontsize" : 12.0,
					"patching_rect" : [ 124.0, 119.0, 78.0, 20.0 ],
					"numinlets" : 1
				}

			}
, 			{
				"box" : 				{
					"maxclass" : "newobj",
					"text" : "r loadbang",
					"id" : "obj-595",
					"numoutlets" : 1,
					"fontname" : "Arial",
					"outlettype" : [ "" ],
					"fontsize" : 12.0,
					"patching_rect" : [ 15.0, 101.0, 67.0, 20.0 ],
					"numinlets" : 0
				}

			}
, 			{
				"box" : 				{
					"maxclass" : "message",
					"text" : "indexmode 1",
					"id" : "obj-596",
					"numoutlets" : 1,
					"fontname" : "Arial",
					"outlettype" : [ "" ],
					"fontsize" : 9.0,
					"patching_rect" : [ 15.0, 130.0, 62.0, 15.0 ],
					"numinlets" : 2
				}

			}
, 			{
				"box" : 				{
					"maxclass" : "newobj",
					"text" : "r pad_pitch_pattern",
					"id" : "obj-515",
					"numoutlets" : 1,
					"fontname" : "Arial",
					"outlettype" : [ "" ],
					"fontsize" : 12.0,
					"patching_rect" : [ 15.0, 15.0, 114.0, 20.0 ],
					"numinlets" : 0
				}

			}
, 			{
				"box" : 				{
					"maxclass" : "newobj",
					"text" : "receive~ playhead",
					"id" : "obj-463",
					"numoutlets" : 1,
					"fontname" : "Arial",
					"outlettype" : [ "signal" ],
					"fontsize" : 12.0,
					"patching_rect" : [ 15.0, 78.0, 108.0, 20.0 ],
					"numinlets" : 1
				}

			}
, 			{
				"box" : 				{
					"maxclass" : "newobj",
					"text" : "*~",
					"id" : "obj-451",
					"numoutlets" : 1,
					"fontname" : "Arial",
					"outlettype" : [ "signal" ],
					"fontsize" : 12.0,
					"patching_rect" : [ 77.0, 257.0, 32.5, 20.0 ],
					"numinlets" : 2
				}

			}
, 			{
				"box" : 				{
					"maxclass" : "newobj",
					"text" : "el.mask~ 1",
					"id" : "obj-434",
					"numoutlets" : 1,
					"fontname" : "Arial",
					"outlettype" : [ "signal" ],
					"fontsize" : 12.0,
					"patching_rect" : [ 15.0, 154.0, 69.0, 20.0 ],
					"numinlets" : 1
				}

			}
, 			{
				"box" : 				{
					"maxclass" : "newobj",
					"text" : "el.clickhold~",
					"id" : "obj-419",
					"numoutlets" : 1,
					"fontname" : "Arial",
					"outlettype" : [ "signal" ],
					"fontsize" : 12.0,
					"patching_rect" : [ 15.0, 188.0, 76.0, 20.0 ],
					"numinlets" : 1
				}

			}
, 			{
				"box" : 				{
					"maxclass" : "newobj",
					"text" : "line~ 1.",
					"id" : "obj-306",
					"numoutlets" : 2,
					"fontname" : "Arial",
					"outlettype" : [ "signal", "bang" ],
					"fontsize" : 12.0,
					"patching_rect" : [ 126.0, 149.0, 50.0, 20.0 ],
					"numinlets" : 2
				}

			}
 ],
		"lines" : [ 			{
				"patchline" : 				{
					"source" : [ "obj-451", 0 ],
					"destination" : [ "obj-2", 0 ],
					"hidden" : 0,
					"midpoints" : [  ]
				}

			}
, 			{
				"patchline" : 				{
					"source" : [ "obj-120", 0 ],
					"destination" : [ "obj-434", 0 ],
					"hidden" : 0,
					"midpoints" : [  ]
				}

			}
, 			{
				"patchline" : 				{
					"source" : [ "obj-515", 0 ],
					"destination" : [ "obj-120", 0 ],
					"hidden" : 0,
					"midpoints" : [  ]
				}

			}
, 			{
				"patchline" : 				{
					"source" : [ "obj-96", 0 ],
					"destination" : [ "obj-306", 0 ],
					"hidden" : 0,
					"midpoints" : [  ]
				}

			}
, 			{
				"patchline" : 				{
					"source" : [ "obj-98", 0 ],
					"destination" : [ "obj-96", 0 ],
					"hidden" : 0,
					"midpoints" : [  ]
				}

			}
, 			{
				"patchline" : 				{
					"source" : [ "obj-596", 0 ],
					"destination" : [ "obj-434", 0 ],
					"hidden" : 0,
					"midpoints" : [  ]
				}

			}
, 			{
				"patchline" : 				{
					"source" : [ "obj-595", 0 ],
					"destination" : [ "obj-596", 0 ],
					"hidden" : 0,
					"midpoints" : [  ]
				}

			}
, 			{
				"patchline" : 				{
					"source" : [ "obj-434", 0 ],
					"destination" : [ "obj-419", 0 ],
					"hidden" : 0,
					"midpoints" : [  ]
				}

			}
, 			{
				"patchline" : 				{
					"source" : [ "obj-463", 0 ],
					"destination" : [ "obj-434", 0 ],
					"hidden" : 0,
					"midpoints" : [  ]
				}

			}
, 			{
				"patchline" : 				{
					"source" : [ "obj-419", 0 ],
					"destination" : [ "obj-451", 0 ],
					"hidden" : 0,
					"midpoints" : [  ]
				}

			}
, 			{
				"patchline" : 				{
					"source" : [ "obj-306", 0 ],
					"destination" : [ "obj-451", 1 ],
					"hidden" : 0,
					"midpoints" : [  ]
				}

			}
, 			{
				"patchline" : 				{
					"source" : [ "obj-99", 0 ],
					"destination" : [ "obj-97", 0 ],
					"hidden" : 0,
					"midpoints" : [  ]
				}

			}
, 			{
				"patchline" : 				{
					"source" : [ "obj-97", 0 ],
					"destination" : [ "obj-98", 0 ],
					"hidden" : 0,
					"midpoints" : [  ]
				}

			}
 ]
	}

}
